<svg xmlns="http://www.w3.org/2000/svg" fill="none" viewBox="0 0 290 290"><path fill="#38B" d="M299.985 176.454l-26.548-12.089c7.303-62.421-33.572-120.793-94.724-135.282L176.431 0l-12.089 26.535C101.939 19.246 43.57 60.11 29.082 121.263L0 123.546l26.549 12.089c-7.304 62.421 33.572 120.793 94.723 135.282L123.555 300l12.088-26.535c62.418 7.304 120.787-33.574 135.276-94.728L300 176.454h-.015zm-155.831 78.295l24.944-54.764 29.699 19.732-8.378-34.663 59.988-4.712c-13.929 46.208-58.059 77.116-106.238 74.392l-.015.015zm-98.89-110.573l54.761 24.945-19.732 29.701 34.662-8.379 4.712 59.991c-46.206-13.93-77.113-58.062-74.389-106.243l-.014-.015zm110.567-98.91l-24.944 54.763-29.699-19.732 8.378 34.664-59.988 4.712c13.93-46.208 58.059-77.117 106.238-74.392l.015-.015zm98.905 110.573l-54.761-24.945 19.731-29.701-34.661 8.378-4.712-59.99c46.206 13.93 77.113 58.061 74.389 106.243l.014.015zm14.224 15.152l-15.637-2.754L150 150.022l19.996 28.567-40.979 90.399 2.754-15.638 18.214-103.328-28.566 19.997-75.375-34.163-15.034-6.818 15.638 2.754 103.323 18.215-19.997-28.567 40.979-90.399L168.2 46.68l-18.215 103.328 28.566-19.997 90.395 40.981h.014z" opacity=".05"/></svg>